<?xml version="1.0" standalone="no"?>
<!DOCTYPE svg PUBLIC "-//W3C//DTD SVG 20010904//EN"
 "http://www.w3.org/TR/2001/REC-SVG-20010904/DTD/svg10.dtd">
<svg version="1.0" xmlns="http://www.w3.org/2000/svg"
 width="1956.000000pt" height="1232.000000pt" viewBox="0 0 1956.000000 1232.000000"
 preserveAspectRatio="xMidYMid meet">

<g transform="translate(0.000000,1232.000000) scale(0.100000,-0.100000)"
fill="#000000" stroke="none">
<path d="M9320 10509 c-709 -58 -1376 -295 -1927 -686 -614 -435 -1064 -1052
-1258 -1724 -179 -623 -147 -1302 89 -1899 25 -63 46 -121 46 -127 0 -7 -124
-428 -275 -936 -151 -508 -275 -934 -275 -946 0 -30 43 -71 75 -71 14 0 445
92 957 205 513 113 938 205 946 205 8 0 87 -36 176 -79 410 -203 862 -336
1291 -381 185 -19 163 -7 224 -121 186 -352 477 -675 821 -911 830 -571 1939
-674 2887 -268 65 28 150 69 190 90 l71 40 733 -162 c675 -148 735 -160 758
-147 14 8 32 27 39 42 12 24 -5 88 -198 734 -116 390 -212 715 -212 723 0 8
19 65 42 125 193 500 194 1084 4 1592 -124 331 -303 603 -573 874 -207 207
-435 375 -670 493 l-51 26 0 118 c0 613 -224 1256 -617 1775 -329 433 -742
771 -1248 1022 -466 230 -917 352 -1459 395 -149 12 -434 11 -586 -1z m708
-175 c988 -100 1892 -594 2452 -1339 362 -482 552 -997 585 -1592 5 -82 4
-123 -3 -123 -6 0 -52 16 -103 35 -332 127 -679 188 -1069 188 -241 0 -390
-14 -605 -58 -851 -172 -1568 -702 -1921 -1420 -88 -179 -124 -276 -169 -450
-52 -201 -68 -340 -68 -565 0 -256 33 -467 107 -693 14 -43 26 -81 26 -86 0
-10 -190 13 -335 40 -358 67 -703 185 -1024 350 -85 43 -166 79 -181 79 -14 0
-424 -88 -910 -195 -486 -107 -885 -193 -886 -192 -2 2 114 394 256 872 143
479 260 881 260 895 0 14 -23 81 -51 149 -228 564 -268 1172 -114 1759 218
830 828 1553 1665 1973 639 320 1351 448 2088 373z m2287 -3019 c420 -62 834
-222 1160 -446 192 -132 411 -334 547 -504 252 -316 419 -710 468 -1105 14
-119 12 -386 -5 -510 -27 -203 -60 -327 -136 -520 l-50 -125 95 -320 c52 -176
140 -473 195 -659 56 -187 99 -341 97 -344 -3 -2 -307 62 -675 143 l-671 148
-162 -81 c-296 -147 -546 -224 -898 -279 -146 -22 -594 -25 -740 -5 -335 48
-625 135 -906 273 -729 358 -1226 1014 -1330 1756 -22 158 -21 412 1 568 67
466 274 880 620 1234 411 422 937 685 1550 776 229 34 610 34 840 0z"/>
</g>
</svg>
